<?xml version="1.0" encoding="UTF-8" standalone="no"?>
<!-- Created with Inkscape (http://www.inkscape.org/) -->

<svg
   xmlns:dc="http://purl.org/dc/elements/1.1/"
   xmlns:cc="http://creativecommons.org/ns#"
   xmlns:rdf="http://www.w3.org/1999/02/22-rdf-syntax-ns#"
   xmlns:svg="http://www.w3.org/2000/svg"
   xmlns="http://www.w3.org/2000/svg"
   xmlns:sodipodi="http://sodipodi.sourceforge.net/DTD/sodipodi-0.dtd"
   xmlns:inkscape="http://www.inkscape.org/namespaces/inkscape"
   width="24"
   height="24"
   viewBox="0 0 24 24"
   id="svg4195"
   version="1.1"
   inkscape:version="0.91 r13725"
   sodipodi:docname="icon.svg"
   inkscape:export-filename="/home/mudrd8mz/www/html/moodleorg/local/plugins/pix/icon.png"
   inkscape:export-xdpi="506.25"
   inkscape:export-ydpi="506.25">
  <defs
     id="defs4197" />
  <sodipodi:namedview
     id="base"
     pagecolor="#ffffff"
     bordercolor="#666666"
     borderopacity="1.0"
     inkscape:pageopacity="0.0"
     inkscape:pageshadow="2"
     inkscape:zoom="22.627417"
     inkscape:cx="12.168189"
     inkscape:cy="12.133052"
     inkscape:document-units="px"
     inkscape:current-layer="layer1"
     showgrid="false"
     units="px"
     inkscape:window-width="1920"
     inkscape:window-height="1026"
     inkscape:window-x="0"
     inkscape:window-y="25"
     inkscape:window-maximized="1" />
  <metadata
     id="metadata4200">
    <rdf:RDF>
      <cc:Work
         rdf:about="">
        <dc:format>image/svg+xml</dc:format>
        <dc:type
           rdf:resource="http://purl.org/dc/dcmitype/StillImage" />
        <dc:title></dc:title>
      </cc:Work>
    </rdf:RDF>
  </metadata>
  <g
     inkscape:label="Layer 1"
     inkscape:groupmode="layer"
     id="layer1"
     transform="translate(0,-1028.3622)">
    <path
       style="fill:#999999;fill-opacity:1"
       d="m 5.9892487,1052.122 c 1.4049379,-0.7871 0.8451544,-2.7057 -0.054711,-3.6668 -0.8537224,-1.3134 -0.5661545,-3.4221 1.0006076,-4.051 1.3708402,-0.6895 3.4764587,-0.2901 4.0388177,1.2668 0.525883,1.5036 -0.473118,2.7569 -1.2217206,3.9164 -0.5881597,1.2386 0.2612686,2.8418 1.6880436,2.7574 1.599569,0.077 3.175471,-0.329 4.767802,-0.4285 0.926298,-0.22 -0.0085,-1.8146 0.08497,-2.6238 -0.06557,-0.9313 -0.234416,-2.2376 0.754627,-2.7454 1.623342,-0.7319 2.615401,1.2223 4.064067,1.4356 1.513198,0.3528 2.925644,-0.9717 2.864435,-2.4877 0.159418,-1.3968 -0.478083,-3.0929 -2.013518,-3.3522 -1.482388,-0.341 -2.577374,0.8778 -3.843882,1.3639 -1.481952,0.1471 -2.295785,-1.6793 -2.013582,-2.9607 0.06195,-1.4984 0.342168,-2.975 0.505017,-4.4633 -2.030436,0.2195 -4.119214,0.8803 -6.146543,0.3211 -1.419277,-0.6543 -0.9827426,-2.5274 -0.07227,-3.4324 0.796363,-1.049 1.039494,-2.6843 0.168793,-3.7503 -1.2522139,-1.2854 -3.7477951,-1.1088 -4.7529099,0.4009 -0.7600392,1.5322 0.047936,3.3035 0.9504151,4.5868 0.5710031,1.4169 -1.0267867,2.6415 -2.3272148,2.6201 -1.3224395,-0.1503 -2.8325663,-0.2405 -4.14107004,-0.477 0.095108,6.4764 0.0958178,8.1882 -0.28942236,15.4839 1.7591719,0.5677 3.6482859,0.5768 5.4749363,0.4798 0.1812795,-0.031 0.3600346,-0.091 0.5143124,-0.1936 z"
       id="path4184"
       inkscape:connector-curvature="0"
       sodipodi:nodetypes="ccccccccccccccccccccccccc" />
  </g>
</svg>
