<?xml version="1.0" encoding="utf-8"?>
<!-- Generator: Adobe Illustrator 15.1.0, SVG Export Plug-In . SVG Version: 6.00 Build 0)  -->
<!DOCTYPE svg PUBLIC "-//W3C//DTD SVG 1.1//EN" "http://www.w3.org/Graphics/SVG/1.1/DTD/svg11.dtd">
<svg version="1.1" id="Layer_1" xmlns="http://www.w3.org/2000/svg" xmlns:xlink="http://www.w3.org/1999/xlink" x="0px" y="0px"
	 width="100px" height="100px" viewBox="0 0 100 100" enable-background="new 0 0 100 100" xml:space="preserve">
<path fill="#FFFFFF" d="M74.524,41.041L50,28.851l-24.525,12.19l-2.225-4.479l26.716-13.281l0.01-0.031L50,23.264l0.024-0.014
	l0.01,0.031L76.75,36.562L74.524,41.041z M50.23,47.447c-1.606-1.533-10.815-6.862-23.414-1.436c0,0.088,0,1.589,0,3.888v25.893
	h19.09c0.652,0.558,2.208,0.958,4.03,0.958c1.829,0,3.381-0.4,4.042-0.958h19.204V49.899c0-2.299,0-3.8,0-3.888
	C61.102,40.69,51.448,46.322,50.23,47.447z M48.517,73.936c0-1.021-8.958-6.986-19.311-0.478V48.213
	c2.048-1.18,4.807-1.898,7.851-1.898c6.333,0,11.459,2.076,11.459,5.935L48.517,73.936L48.517,73.936z M70.938,73.458
	c-10.346-6.509-19.304-0.543-19.304,0.478V52.25c0-3.859,5.131-5.935,11.456-5.935c3.044,0,5.802,0.718,7.848,1.898V73.458z"/>
</svg>
