<?xml version="1.0" encoding="utf-8"?>
<!-- Generator: Adobe Illustrator 15.1.0, SVG Export Plug-In . SVG Version: 6.00 Build 0)  -->
<!DOCTYPE svg PUBLIC "-//W3C//DTD SVG 1.1//EN" "http://www.w3.org/Graphics/SVG/1.1/DTD/svg11.dtd">
<svg version="1.1" id="Layer_1" xmlns="http://www.w3.org/2000/svg" xmlns:xlink="http://www.w3.org/1999/xlink" x="0px" y="0px"
	 width="99.998px" height="100px" viewBox="0 0 99.998 100" enable-background="new 0 0 99.998 100" xml:space="preserve">
<path fill="#FFFFFF" d="M34.319,51.249l2.969-4.563l0.063-3.271c0.009-0.428-0.331-0.784-0.762-0.792
	c-0.428-0.012-0.784,0.33-0.79,0.759l-0.057,2.826l-3.295,5.07l0.246,3.634c-0.179,0.264-0.356,0.527-0.542,0.809l-3.447-2.033
	l-3.06,3.295l-2.776,0.921c-0.409,0.137-0.629,0.575-0.495,0.982c0.057,0.175,0.172,0.314,0.316,0.408
	c0.19,0.124,0.434,0.162,0.667,0.088l2.967-0.983l2.589-2.649l2.093,1.762c-0.356,0.575-0.71,1.17-1.06,1.783l-3.992,1.244
	l-3.215,5.128l-2.404,0.862c-0.404,0.146-0.616,0.59-0.469,0.993c0.058,0.169,0.17,0.299,0.307,0.391
	c0.196,0.127,0.448,0.166,0.688,0.079l2.911-1.043l2.692-4.321l1.812-0.075c-1.967,4.361-2.873,9.031,0.06,12.329l11.98-18.428
	l-6.012-3.908L34.319,51.249z M47,73.592l-0.287-2.913l1.773-4.133l-3.26-2.323c0.184-0.286,0.35-0.556,0.519-0.826l3.423-1.249
	l3.293-5.069l2.562-1.198c0.388-0.182,0.556-0.646,0.37-1.033c-0.18-0.391-0.646-0.556-1.032-0.374l-2.963,1.386l-2.968,4.567
	l-1.178,0.54l-6.01-3.906L29.481,75.154c4.153,1.325,7.954-1.225,11.064-4.646l0.678,1.715l-2.854,4.213l0.225,3.084
	c0.018,0.253,0.157,0.469,0.354,0.595c0.138,0.09,0.304,0.137,0.481,0.125c0.427-0.032,0.748-0.404,0.718-0.833l-0.188-2.548
	l3.38-5.019l-0.485-4.161c0.418-0.566,0.82-1.128,1.198-1.684l2.465,1.194l-1.373,3.442l0.307,3.111
	c0.025,0.244,0.16,0.451,0.35,0.574c0.145,0.095,0.318,0.142,0.5,0.123C46.73,74.399,47.042,74.017,47,73.592z M47.383,49.918
	l-6.462,4.843l6.29,5.188C48.538,56.645,48.543,52.921,47.383,49.918z M35.006,52.224l7.951,3.503l2.154-7.945
	C41.566,48.009,37.789,49.607,35.006,52.224z M79.185,62.433L64.342,47.589c2.006-2.769,3.205-6.161,3.205-9.835
	c0-0.188-0.025-0.369-0.055-0.548c0.031-0.181,0.056-0.365,0.056-0.557c0-9.271-7.543-16.814-16.814-16.814
	c-0.165,0-0.323,0.026-0.482,0.048c-0.16-0.022-0.317-0.048-0.482-0.048c-9.272,0-16.815,7.543-16.815,16.814
	c0,0.188,0.025,0.369,0.055,0.549c-0.03,0.181-0.056,0.364-0.056,0.556c0,9.271,7.542,16.816,16.815,16.816
	c0.165,0,0.323-0.026,0.482-0.05c0.159,0.023,0.316,0.05,0.482,0.05c3.144,0,6.078-0.884,8.599-2.393l15.055,15.055
	c0.663,0.663,1.53,0.994,2.4,0.994c0.868,0,1.737-0.331,2.4-0.994C80.51,65.908,80.51,63.758,79.185,62.433z M63.758,37.807
	c0.002,7.106-5.802,12.934-12.951,12.975l-0.501,0.072l-0.612-0.072c-7.149-0.041-12.953-5.869-12.953-13.027l-0.014-0.057
	l-0.082-0.493l0.099-0.602c-0.001-7.112,5.804-12.941,12.955-12.98l0.499-0.07l0.472,0.052c0,0,0.169,0.022,0.171,0.022
	c7.081,0,12.921,5.842,12.921,13.023l0.019,0.083l0.074,0.473L63.758,37.807z"/>
</svg>
