<svg id="Layer_1" data-name="Layer 1" xmlns="http://www.w3.org/2000/svg" viewBox="0 0 1578.18 403.8"><defs><style>.cls-1{fill:#3e4241;}.cls-2{fill:#f48020;}.cls-3{fill:#fff;}.cls-4{fill:#333;}</style></defs><title>MoodlePartners_Logo_Colour_RGB</title><path class="cls-1" d="M43.86,415.94c-17.1,0-29.8-13.2-29.8-29.88v-.17c0-16.52,12.45-30,30.3-30,11,0,17.51,3.65,22.9,9l-8.13,9.38c-4.48-4.07-9.05-6.56-14.86-6.56-9.79,0-16.85,8.14-16.85,18.1v.16c0,10,6.89,18.26,16.85,18.26,6.64,0,10.71-2.65,15.28-6.8l8.13,8.22C61.71,412,55.06,415.94,43.86,415.94Z" transform="translate(-13.9 -12.14)"/><path class="cls-1" d="M85.34,414.94v-58.1h43.83v11.37H98V380h27.39v11.37H98v12.2h31.54v11.37Z" transform="translate(-13.9 -12.14)"/><path class="cls-1" d="M183.68,414.94l-12.45-18.59h-10v18.59H148.41v-58.1H175c13.69,0,21.91,7.22,21.91,19.18v.16c0,9.38-5.06,15.28-12.45,18l14.19,20.75Zm.25-38.26c0-5.48-3.81-8.3-10-8.3h-12.7v16.68h12.95c6.23,0,9.79-3.32,9.79-8.21Z" transform="translate(-13.9 -12.14)"/><path class="cls-1" d="M242.18,368.63v46.31H229.4V368.63H211.72V356.84h48.14v11.79Z" transform="translate(-13.9 -12.14)"/><path class="cls-1" d="M277.69,414.94v-58.1h12.78v58.1Z" transform="translate(-13.9 -12.14)"/><path class="cls-1" d="M325.24,368.46v12.37H353v11.62H325.24v22.49H312.46v-58.1H356.7v11.62Z" transform="translate(-13.9 -12.14)"/><path class="cls-1" d="M374.94,414.94v-58.1h12.79v58.1Z" transform="translate(-13.9 -12.14)"/><path class="cls-1" d="M409.71,414.94v-58.1h43.83v11.37H422.41V380H449.8v11.37H422.41v12.2H454v11.37Z" transform="translate(-13.9 -12.14)"/><path class="cls-1" d="M495.44,414.94H472.78v-58.1h22.66c18.26,0,30.88,12.53,30.88,28.89v.16C526.32,402.25,513.7,414.94,495.44,414.94ZM513,385.89c0-10.29-7.05-17.51-17.51-17.51h-9.88v35h9.88c10.46,0,17.51-7.06,17.51-17.35Z" transform="translate(-13.9 -12.14)"/><path class="cls-1" d="M598.16,415.77a37,37,0,0,1-24.64-9.29l7.55-9.05c5.22,4.32,10.71,7.06,17.34,7.06,5.23,0,8.39-2.08,8.39-5.48v-.17c0-3.24-2-4.89-11.7-7.38-11.71-3-19.26-6.23-19.26-17.77v-.16c0-10.55,8.46-17.52,20.33-17.52a33.67,33.67,0,0,1,21.59,7.39L611.12,373C606,369.46,600.9,367.3,596,367.3s-7.47,2.24-7.47,5.06v.17c0,3.82,2.49,5.06,12.53,7.63,11.79,3.08,18.43,7.31,18.43,17.44v.16C619.5,409.3,610.7,415.77,598.16,415.77Z" transform="translate(-13.9 -12.14)"/><path class="cls-1" d="M638.07,414.94v-58.1H681.9v11.37H650.77V380h27.4v11.37h-27.4v12.2h31.54v11.37Z" transform="translate(-13.9 -12.14)"/><path class="cls-1" d="M736.41,414.94,724,396.35h-10v18.59H701.14v-58.1H727.7c13.69,0,21.91,7.22,21.91,19.18v.16c0,9.38-5.06,15.28-12.45,18l14.2,20.75Zm.25-38.26c0-5.48-3.81-8.3-10-8.3h-12.7v16.68h13c6.23,0,9.79-3.32,9.79-8.21Z" transform="translate(-13.9 -12.14)"/><path class="cls-1" d="M796.74,415.36H785.45L762,356.84h14.11l15.19,40.92,15.19-40.92h13.78Z" transform="translate(-13.9 -12.14)"/><path class="cls-1" d="M837.23,414.94v-58.1H850v58.1Z" transform="translate(-13.9 -12.14)"/><path class="cls-1" d="M899.22,415.94c-17.1,0-29.8-13.2-29.8-29.88v-.17c0-16.52,12.45-30,30.3-30,10.95,0,17.51,3.65,22.91,9l-8.14,9.38c-4.48-4.07-9-6.56-14.85-6.56-9.8,0-16.85,8.14-16.85,18.1v.16c0,10,6.88,18.26,16.85,18.26,6.64,0,10.7-2.65,15.27-6.8l8.13,8.22C917.07,412,910.42,415.94,899.22,415.94Z" transform="translate(-13.9 -12.14)"/><path class="cls-1" d="M940.7,414.94v-58.1h43.83v11.37H953.4V380h27.4v11.37H953.4v12.2H985v11.37Z" transform="translate(-13.9 -12.14)"/><path class="cls-1" d="M1024.43,415.77a37,37,0,0,1-24.64-9.29l7.55-9.05c5.22,4.32,10.7,7.06,17.34,7.06,5.23,0,8.39-2.08,8.39-5.48v-.17c0-3.24-2-4.89-11.7-7.38-11.71-3-19.26-6.23-19.26-17.77v-.16c0-10.55,8.46-17.52,20.33-17.52A33.63,33.63,0,0,1,1044,363.4l-6.63,9.63c-5.15-3.57-10.22-5.73-15.11-5.73s-7.47,2.24-7.47,5.06v.17c0,3.82,2.49,5.06,12.53,7.63,11.79,3.08,18.43,7.31,18.43,17.44v.16C1045.77,409.3,1037,415.77,1024.43,415.77Z" transform="translate(-13.9 -12.14)"/><path class="cls-1" d="M1119.2,397.51h-9.71v17.43H1096.7v-58.1h23.74c13.87,0,22.25,8.22,22.25,20.09v.17C1142.69,390.54,1132.23,397.51,1119.2,397.51Zm10.54-20.33c0-5.73-4-8.8-10.37-8.8h-9.88v17.76h10.13c6.38,0,10.12-3.82,10.12-8.8Z" transform="translate(-13.9 -12.14)"/><path class="cls-1" d="M1194.88,414.94l-12.45-18.59h-10v18.59H1159.6v-58.1h26.57c13.69,0,21.91,7.22,21.91,19.18v.16c0,9.38-5.06,15.28-12.45,18l14.19,20.75Zm.25-38.26c0-5.48-3.82-8.3-10-8.3h-12.7v16.68h12.95c6.22,0,9.79-3.32,9.79-8.21Z" transform="translate(-13.9 -12.14)"/><path class="cls-1" d="M1255.29,415.94c-17.93,0-30.79-13.36-30.79-29.88v-.17c0-16.52,13-30,31-30s30.79,13.36,30.79,29.88v.16C1286.25,402.41,1273.22,415.94,1255.29,415.94Zm17.6-30.05c0-10-7.31-18.26-17.6-18.26s-17.43,8.14-17.43,18.1v.16c0,10,7.3,18.26,17.6,18.26s17.43-8.13,17.43-18.09Z" transform="translate(-13.9 -12.14)"/><path class="cls-1" d="M1331.12,415.36h-11.29l-23.49-58.52h14.11l15.19,40.92,15.19-40.92h13.78Z" transform="translate(-13.9 -12.14)"/><path class="cls-1" d="M1371.6,414.94v-58.1h12.79v58.1Z" transform="translate(-13.9 -12.14)"/><path class="cls-1" d="M1429,414.94h-22.67v-58.1H1429c18.26,0,30.88,12.53,30.88,28.89v.16C1459.92,402.25,1447.3,414.94,1429,414.94Zm17.51-29.05c0-10.29-7.06-17.51-17.51-17.51h-9.88v35H1429c10.45,0,17.51-7.06,17.51-17.35Z" transform="translate(-13.9 -12.14)"/><path class="cls-1" d="M1478.73,414.94v-58.1h43.83v11.37h-31.13V380h27.4v11.37h-27.4v12.2H1523v11.37Z" transform="translate(-13.9 -12.14)"/><path class="cls-1" d="M1577.08,414.94l-12.46-18.59h-10v18.59H1541.8v-58.1h26.56c13.7,0,21.91,7.22,21.91,19.18v.16c0,9.38-5.06,15.28-12.44,18L1592,414.94Zm.25-38.26c0-5.48-3.82-8.3-10-8.3h-12.7v16.68h13c6.23,0,9.8-3.32,9.8-8.21Z" transform="translate(-13.9 -12.14)"/><path class="cls-2" d="M803.06,323.9H33.38A19.48,19.48,0,0,1,13.9,304.42V31.62A19.48,19.48,0,0,1,33.38,12.14H803.06Z" transform="translate(-13.9 -12.14)"/><path class="cls-1" d="M802.93,12.14H1572.6a19.48,19.48,0,0,1,19.48,19.48v272.8a19.48,19.48,0,0,1-19.48,19.48H802.93Z" transform="translate(-13.9 -12.14)"/><path class="cls-3" d="M217.34,248.62V186.73q0-19.41-16-19.41t-16,19.41v61.89H153.76V186.73q0-19.41-15.76-19.41-16,0-16,19.41v61.89H90.46V183.07q0-20.25,14.06-30.66,12.39-9.28,33.48-9.29,21.39,0,31.51,11,8.73-11,31.8-11,21.09,0,33.47,9.29,14.06,10.41,14.06,30.66v65.55Z" transform="translate(-13.9 -12.14)"/><path class="cls-3" d="M603.51,248.33V71.52h31.54V248.33Z" transform="translate(-13.9 -12.14)"/><path class="cls-3" d="M563.32,248.33V237.92q-4.23,5.63-14.36,9a52.71,52.71,0,0,1-17.18,3.1q-22.51,0-36.17-15.49T482,196.25c0-15,4.44-27.62,13.38-37.73,7.92-9,20.78-15.2,35.61-15.2,16.7,0,26.46,6.27,32.38,13.51V71.52H594V248.33Zm0-58.84q0-8.44-8-16.19t-16.46-7.75a22.32,22.32,0,0,0-19.15,9.86q-6.2,8.75-6.19,21.39,0,12.4,6.19,21.12,7,10.14,19.15,10.14,7.3,0,15.9-6.9t8.59-14.22Z" transform="translate(-13.9 -12.14)"/><path class="cls-3" d="M422.56,251.15q-23.94,0-39.56-15.21T367.37,196.8q0-23.91,15.63-39.13t39.56-15.2q23.91,0,39.69,15.2T478,196.8q0,24-15.77,39.14T422.56,251.15Zm0-83.34q-11.42,0-17.53,8.63T398.91,197q0,11.88,5.69,20.09a21.93,21.93,0,0,0,35.9,0q6-8.21,6-20.09t-5.69-20.08Q434.24,167.81,422.56,167.81Z" transform="translate(-13.9 -12.14)"/><path class="cls-3" d="M308.53,251.15q-23.92,0-39.55-15.21T253.35,196.8q0-23.91,15.63-39.13t39.55-15.2q23.93,0,39.7,15.2T364,196.8q0,24-15.77,39.14T308.53,251.15Zm0-83.34q-11.38,0-17.52,8.63A34.55,34.55,0,0,0,284.88,197q0,11.88,5.7,20.09a21.93,21.93,0,0,0,35.9,0q6-8.21,6-20.09t-5.7-20.08Q320.21,167.81,308.53,167.81Z" transform="translate(-13.9 -12.14)"/><path class="cls-3" d="M672.39,206.38c.67,7.51,10.43,23.65,26.47,23.65,15.62,0,23-9,23.37-12.67l33.22-.28c-3.62,11.08-18.35,34.63-57.16,34.63-16.14,0-30.92-5-41.52-15.06s-15.91-23.13-15.91-39.28q0-25.05,15.91-39.83T698,142.75q27.6,0,43.08,18.3,14.35,16.89,14.36,45.33ZM723.91,187a31.33,31.33,0,0,0-8.44-16.61,23.7,23.7,0,0,0-16.89-7,22.1,22.1,0,0,0-16.48,6.76A34.14,34.14,0,0,0,673.24,187Z" transform="translate(-13.9 -12.14)"/><path class="cls-4" d="M151.67,138.36,183,115.51l-.41-1.4c-56.46,6.91-82.15,11.81-130.79,40l.45,1.29,3.87,0a197.52,197.52,0,0,0-.18,28c-5.4,15.62-.14,26.23,4.8,37.77.78-12,.7-25.16-3-38.24a193.88,193.88,0,0,1,.21-27.5l32.25.31a146.37,146.37,0,0,0,.95,18.91c28.82,10.12,57.79,0,73.17-25C160,144.89,151.67,138.36,151.67,138.36Z" transform="translate(-13.9 -12.14)"/><path class="cls-3" d="M918.62,105h-44a10.41,10.41,0,0,0-10.17,10.37V238.63a10.28,10.28,0,1,0,20.55,0v-39.3h31c28.23,0,56.71-14.73,56.71-47.64v-.4C972.76,123.19,951.51,105,918.62,105Zm-2,75.11H885V124.41h32.41c22,0,34.57,10,34.57,27.47v.4C952,169.21,938.13,180.15,916.65,180.15Z" transform="translate(-13.9 -12.14)"/><path class="cls-3" d="M1028.73,139.74a82.74,82.74,0,0,0-34.25,7.07,9.42,9.42,0,0,0-5.7,8.62,9.22,9.22,0,0,0,9.19,9,10.26,10.26,0,0,0,3.78-.81,61,61,0,0,1,25.4-5.5c12.71,0,27.87,4.39,27.87,25.31v.29a110.92,110.92,0,0,0-28.86-3.57c-28.41,0-46.06,13.57-46.06,35.41v.4c0,22.47,20.4,34.23,40.54,34.23,16.38,0,27.35-6.51,34.38-13.45v2.68a9.47,9.47,0,0,0,9.78,9.58,9.67,9.67,0,0,0,9.79-10V183.23c0-13.5-3.76-24.11-11.18-31.53C1055.47,143.76,1043.8,139.74,1028.73,139.74Zm26.48,60.36v8c0,14.32-13.59,25.11-31.61,25.11-11.14,0-23.14-5.57-23.14-17.81V215c0-11.65,10.2-18.6,27.28-18.6A103.24,103.24,0,0,1,1055.21,200.1Z" transform="translate(-13.9 -12.14)"/><path class="cls-3" d="M1146.21,139.74c-11.91,0-24.38,7.91-32.6,20.06v-9.49a10.08,10.08,0,1,0-20.16,0v88.51a10.08,10.08,0,1,0,20.16,0V204.13c0-25.06,12.59-41.52,33.75-44.06a10,10,0,0,0,8.83-10.16A9.75,9.75,0,0,0,1146.21,139.74Z" transform="translate(-13.9 -12.14)"/><path class="cls-3" d="M1223.72,159.5a9.3,9.3,0,0,0,9.39-9.19,9.42,9.42,0,0,0-9.39-9.2h-23.93V119.55a10.32,10.32,0,0,0-10.18-10.18,10,10,0,0,0-10,10.18v21.56h-5.79a9.32,9.32,0,0,0-9.19,9.2,9.42,9.42,0,0,0,9.19,9.19h5.79v59c0,19.87,11.4,31.27,31.27,31.27a40.66,40.66,0,0,0,15.88-2.92,8.81,8.81,0,0,0,5.93-8.24,8.61,8.61,0,0,0-11.28-8.58,25.64,25.64,0,0,1-7,1c-10,0-14.66-4.6-14.66-14.46V159.5Z" transform="translate(-13.9 -12.14)"/><path class="cls-3" d="M1302.76,139c-13.36,0-24.23,4.91-32.4,14.63v-3.27a10.08,10.08,0,1,0-20.16,0v88.51A10.07,10.07,0,0,0,1260.38,249a9.86,9.86,0,0,0,10-10.18V187.17c0-17.33,11.54-29.44,28.06-29.44,16.34,0,25.7,10.3,25.7,28.26v52.83A10.08,10.08,0,0,0,1334.31,249a10,10,0,0,0,10-10.18V182.25C1344.29,155.94,1328,139,1302.76,139Z" transform="translate(-13.9 -12.14)"/><path class="cls-3" d="M1409.18,139c-28.81,0-51.38,24.38-51.38,55.52v.39c0,31.66,22.93,55.52,53.35,55.52,16.19,0,28.58-4.95,40.08-16a9,9,0,0,0,3.22-6.8,9,9,0,0,0-15.22-6.57c-8.28,7.62-17.07,11.17-27.69,11.17-17.21,0-30.2-11.74-33-29.51h70.89a9.6,9.6,0,0,0,9.59-9.59C1459,166.18,1441.88,139,1409.18,139Zm-.4,17.79c19,0,27.69,14.88,29.75,29.72h-60C1381.26,168.82,1393.42,156.74,1408.78,156.74Z" transform="translate(-13.9 -12.14)"/><path class="cls-3" d="M1528.7,139.74c-11.91,0-24.38,7.91-32.6,20.06v-9.49a10.08,10.08,0,1,0-20.16,0v88.51a10.08,10.08,0,1,0,20.16,0V204.13c0-25.06,12.59-41.52,33.75-44.06a10,10,0,0,0,8.83-10.16A9.75,9.75,0,0,0,1528.7,139.74Z" transform="translate(-13.9 -12.14)"/></svg>